<svg width="55" height="55" viewBox="0 0 55 55" fill="none" xmlns="http://www.w3.org/2000/svg">
<path fill-rule="evenodd" clip-rule="evenodd" d="M27.141 0.0159302C42.0964 0.0159302 54.2202 12.1671 54.2202 27.1559C54.2202 42.145 42.0964 54.2962 27.141 54.2962C12.1861 54.2962 0.0621338 42.145 0.0621338 27.1559C0.0621338 12.1671 12.1861 0.0159302 27.141 0.0159302Z" fill="#3498DB"/>
<path fill-rule="evenodd" clip-rule="evenodd" d="M3.02991 14.7904C6.79991 7.42112 13.8344 2.00761 22.22 0.464325C23.4943 0.515881 22.5369 0.800931 23.2352 2.13745C24.0385 3.67436 23.3813 5.06501 21.7016 4.04041C20.022 3.01567 19.73 4.40632 18.3425 3.60123C16.9551 2.79615 17.0281 4.91862 16.9551 6.67519C16.882 8.43175 19.8031 5.3578 22.5781 5.94323C25.3531 6.5288 23.6004 10.7739 18.7077 10.3347C13.8151 9.89553 16.225 10.0422 13.8151 13.9944C11.4053 17.9467 11.0402 16.9221 10.0907 15.3118C9.14124 13.7016 8.55726 15.019 8.70318 17.2147C8.84911 19.4105 10.6019 17.5074 10.0176 19.4836C9.43336 21.4598 10.1638 22.997 12.6467 22.1188C15.1297 21.2404 13.5962 25.5588 15.7138 25.6319C17.8315 25.705 19.365 27.0225 22.1401 28.1935C24.915 29.3647 27.3248 33.0241 25.2073 33.9023C23.0896 34.7806 24.1119 38.7329 20.6066 38.8793C17.1013 39.0257 16.5903 49.6382 15.4218 49.5651C14.2533 49.492 13.5231 44.8077 12.2087 42.978C10.8943 41.1483 12.5738 38.0742 11.9897 36.2446C11.4055 34.4149 8.04624 32.4388 8.92248 27.6815C9.79885 22.9241 7.68102 26.7299 7.16987 22.9973C6.65872 19.2645 5.12513 21.5335 4.68695 18.5326C4.31536 15.9865 3.73314 15.1266 3.02991 14.7904Z" fill="#8FD831"/>
<path fill-rule="evenodd" clip-rule="evenodd" d="M27.3066 1.44211C29.4973 1.44211 30.6658 2.24719 30.4833 2.75963C30.3007 3.27194 29.2601 2.50348 28.621 3.98558C27.9821 5.46768 26.339 6.56541 25.4262 5.70551C24.5133 4.84561 26.0834 5.0285 25.4262 3.67448C24.7688 2.32032 25.4992 1.51537 27.3066 1.44211Z" fill="#8FD831"/>
<path fill-rule="evenodd" clip-rule="evenodd" d="M36.6436 52.5761C33.6867 53.687 30.485 54.296 27.1412 54.296C23.281 54.296 19.6105 53.4847 16.2875 52.0258C16.4593 51.8736 16.7772 51.667 17.3012 51.285C18.9078 50.1139 19.1635 47.7719 20.697 49.1259C22.2305 50.48 22.1209 49.2357 24.3847 50.2971C26.6486 51.3583 25.8089 49.3822 29.4235 50.0044C33.0382 50.6265 34.0606 50.9193 35.4482 50.3337C36.6941 49.8078 37.3214 51.288 36.6436 52.5761Z" fill="#8FD831"/>
<path fill-rule="evenodd" clip-rule="evenodd" d="M40.8052 3.72144C48.812 8.42131 54.1957 17.124 54.2194 27.0901C54.019 28.0184 53.7881 28.8331 53.5577 29.4928C51.513 35.348 50.4908 33.3352 50.3447 34.9088C50.1987 36.4825 50.2352 35.7872 48.1539 41.9351C46.0728 48.0832 44.1741 45.0457 43.6994 42.9232C43.2248 40.8007 44.0645 40.947 43.2977 38.4951C42.531 36.0432 44.4297 35.97 44.0646 34.799C43.6995 33.628 43.2979 32.5666 43.59 31.1027C43.8821 29.6389 43.882 27.004 42.4945 26.3454C41.1069 25.6867 37.6019 28.9437 35.6665 26.5649C33.7313 24.1863 36.6161 22.7225 35.8492 20.8561C35.0825 18.9897 36.1779 18.7702 37.2733 17.9284C38.3687 17.0866 39.3365 14.8727 40.9978 14.4335C42.6592 13.9944 43.9554 15.1655 45.1785 15.8608C46.4017 16.5562 46.4017 14.8544 45.6897 14.0495C44.9777 13.2444 44.284 13.6468 42.8234 13.9762C41.3629 14.3056 41.1803 12.2744 38.2592 13.9214C35.3382 15.5682 35.7397 11.5792 37.7845 10.5545C39.8292 9.52976 40.4499 10.0788 39.3181 9.34687C38.1861 8.61492 40.6325 8.43203 36.5065 6.82172C32.3804 5.21155 35.1555 3.01581 37.6384 3.1622C38.7637 3.30072 39.8155 3.49053 40.8052 3.72144Z" fill="#8FD831"/>
</svg>
