<svg width="172" height="55" viewBox="0 0 172 55" fill="none" xmlns="http://www.w3.org/2000/svg">
<g clip-path="url(#clip0_2_184)">
<path d="M93.6252 24.6002H95.9922V3.05167H93.6252V12.0405C93.3795 13.6741 92.4867 14.5688 91.0452 14.5688C89.358 14.5688 88.3997 13.2718 88.3997 11.4576V3.05167H86.0081V11.6382C86.0081 14.536 87.3922 16.7524 90.2753 16.7524C91.5694 16.7524 92.8553 16.1696 93.6252 15.0614V24.6002Z" fill="#252931"/>
<path d="M106.46 7.45167V24.6002H108.614V3.05167H105.944L102.807 12.3196L100.595 19.1248V3.05167H98.4739V24.6002H100.964L104.158 14.5935L106.46 7.45167Z" fill="#252931"/>
<path d="M115.674 2.83823C112.39 2.83823 110.858 4.98897 110.858 8.25614V19.3957C110.858 22.6629 112.39 24.8136 115.674 24.8136C118.991 24.8136 120.531 22.6629 120.531 19.3957V16.7196H118.254V19.5188C118.254 21.4643 117.492 22.63 115.739 22.63C114.019 22.63 113.217 21.4643 113.217 19.5188V8.133C113.217 6.19569 114.019 5.02181 115.739 5.02181C117.492 5.02181 118.254 6.19569 118.254 8.133V10.1935H120.531V8.25614C120.531 4.98897 118.991 2.83823 115.674 2.83823Z" fill="#252931"/>
<path d="M128.394 24.6002V5.23525H132.35V3.05167H122.03V5.23525H125.994V24.6002H128.394Z" fill="#252931"/>
<path d="M141.998 20.2576L142.825 24.6002H145.225L141.105 3.05167H137.633L133.521 24.6002H135.732L136.56 20.2576H141.998ZM139.23 5.76062L141.662 18.1972H136.871L139.23 5.76062Z" fill="#252931"/>
<path d="M154.349 15.3979V24.6002H156.741V3.05167H151.95C148.575 3.05167 147.158 4.77555 147.158 7.97704V9.73376C147.158 12.1061 147.985 13.5838 149.804 14.1666C147.863 14.7494 147.125 16.3502 147.125 18.6569V22.0144C147.125 22.9666 147.068 23.8614 146.699 24.6002H149.124C149.402 23.9845 149.525 23.4345 149.525 21.9815V18.5994C149.525 16.1696 150.664 15.3979 152.654 15.3979H154.349ZM154.349 5.23525V13.2144H152.531C150.664 13.2144 149.525 12.5987 149.525 10.2591V8.19047C149.525 6.25316 150.23 5.23525 152.015 5.23525H154.349Z" fill="#252931"/>
<path d="M93.8381 33.0636V52.4285H96.2379V30.88H86.1636V52.4285H88.5552V33.0636H93.8381Z" fill="#252931"/>
<path d="M107.385 33.0636V52.4285H109.777V30.88H101.021L100.44 47.1994C100.382 49.2599 100.038 50.2778 98.0481 50.2778V52.4613H98.4412C101.734 52.4285 102.651 50.4912 102.774 47.0763L103.265 33.0636H107.385Z" fill="#252931"/>
<path d="M120.195 48.086L121.022 52.4285H123.414L119.302 30.88H115.83L111.718 52.4285H113.929L114.757 48.086H120.195ZM117.427 33.589L119.851 46.0255H115.06L117.427 33.589Z" fill="#252931"/>
<path d="M132.972 42.7337V52.4285H135.364V30.88H132.972V40.5748H127.689V30.88H125.29V52.4285H127.689V42.7337H132.972Z" fill="#252931"/>
<path d="M140.221 40.427V33.0636H146.667V30.88H137.821V52.4285H146.667V50.2449H140.221V42.5778H145.471V40.427H140.221Z" fill="#252931"/>
<path d="M154.562 52.4285V33.0636H158.527V30.88H148.207V33.0636H152.163V52.4285H154.562Z" fill="#252931"/>
<path d="M168.167 48.086L168.994 52.4285H171.394L167.274 30.88H163.81L159.69 52.4285H161.901L162.728 48.086H168.167ZM165.407 33.589L167.831 46.0255H163.04L165.407 33.589Z" fill="#252931"/>
<path opacity="0.5" d="M70.4504 52.3444V1.68202C70.4504 1.31754 70.3522 1.07455 70.2047 1.07455C70.0573 1.07455 69.959 1.31754 69.959 1.68202V52.2837C69.959 52.6481 70.0573 52.8911 70.2047 52.8911C70.3522 52.8911 70.4504 52.6481 70.4504 52.3444Z" fill="#252931"/>
<path fill-rule="evenodd" clip-rule="evenodd" d="M27.141 0.0159302C42.0964 0.0159302 54.2202 12.1671 54.2202 27.1559C54.2202 42.145 42.0964 54.2962 27.141 54.2962C12.1861 54.2962 0.0621338 42.145 0.0621338 27.1559C0.0621338 12.1671 12.1861 0.0159302 27.141 0.0159302Z" fill="#3498DB"/>
<path fill-rule="evenodd" clip-rule="evenodd" d="M3.02991 14.7904C6.79991 7.42112 13.8344 2.00761 22.22 0.464325C23.4943 0.515881 22.5369 0.800931 23.2352 2.13745C24.0385 3.67436 23.3813 5.06501 21.7016 4.04041C20.022 3.01567 19.73 4.40632 18.3425 3.60123C16.9551 2.79615 17.0281 4.91862 16.9551 6.67519C16.882 8.43175 19.8031 5.3578 22.5781 5.94323C25.3531 6.5288 23.6004 10.7739 18.7077 10.3347C13.8151 9.89553 16.225 10.0422 13.8151 13.9944C11.4053 17.9467 11.0402 16.9221 10.0907 15.3118C9.14124 13.7016 8.55726 15.019 8.70318 17.2147C8.84911 19.4105 10.6019 17.5074 10.0176 19.4836C9.43336 21.4598 10.1638 22.997 12.6467 22.1188C15.1297 21.2404 13.5962 25.5588 15.7138 25.6319C17.8315 25.705 19.365 27.0225 22.1401 28.1935C24.915 29.3647 27.3248 33.0241 25.2073 33.9023C23.0896 34.7806 24.1119 38.7329 20.6066 38.8793C17.1013 39.0257 16.5903 49.6382 15.4218 49.5651C14.2533 49.492 13.5231 44.8077 12.2087 42.978C10.8943 41.1483 12.5738 38.0742 11.9897 36.2446C11.4055 34.4149 8.04624 32.4388 8.92248 27.6815C9.79885 22.9241 7.68102 26.7299 7.16987 22.9973C6.65872 19.2645 5.12513 21.5335 4.68695 18.5326C4.31536 15.9865 3.73314 15.1266 3.02991 14.7904Z" fill="#8FD831"/>
<path fill-rule="evenodd" clip-rule="evenodd" d="M27.3066 1.44211C29.4973 1.44211 30.6658 2.24719 30.4833 2.75963C30.3007 3.27194 29.2601 2.50348 28.621 3.98558C27.9821 5.46768 26.339 6.56541 25.4262 5.70551C24.5133 4.84561 26.0834 5.0285 25.4262 3.67448C24.7688 2.32032 25.4992 1.51537 27.3066 1.44211Z" fill="#8FD831"/>
<path fill-rule="evenodd" clip-rule="evenodd" d="M36.6436 52.5761C33.6867 53.687 30.485 54.296 27.1412 54.296C23.281 54.296 19.6105 53.4847 16.2875 52.0258C16.4593 51.8736 16.7772 51.667 17.3012 51.285C18.9078 50.1139 19.1635 47.7719 20.697 49.1259C22.2305 50.48 22.1209 49.2357 24.3847 50.2971C26.6486 51.3583 25.8089 49.3822 29.4235 50.0044C33.0382 50.6265 34.0606 50.9193 35.4482 50.3337C36.6941 49.8078 37.3214 51.288 36.6436 52.5761Z" fill="#8FD831"/>
<path fill-rule="evenodd" clip-rule="evenodd" d="M40.8052 3.72144C48.812 8.42131 54.1957 17.124 54.2194 27.0901C54.019 28.0184 53.7881 28.8331 53.5577 29.4928C51.513 35.348 50.4908 33.3352 50.3447 34.9088C50.1987 36.4825 50.2352 35.7872 48.1539 41.9351C46.0728 48.0832 44.1741 45.0457 43.6994 42.9232C43.2248 40.8007 44.0645 40.947 43.2977 38.4951C42.531 36.0432 44.4297 35.97 44.0646 34.799C43.6995 33.628 43.2979 32.5666 43.59 31.1027C43.8821 29.6389 43.882 27.004 42.4945 26.3454C41.1069 25.6867 37.6019 28.9437 35.6665 26.5649C33.7313 24.1863 36.6161 22.7225 35.8492 20.8561C35.0825 18.9897 36.1779 18.7702 37.2733 17.9284C38.3687 17.0866 39.3365 14.8727 40.9978 14.4335C42.6592 13.9944 43.9554 15.1655 45.1785 15.8608C46.4017 16.5562 46.4017 14.8544 45.6897 14.0495C44.9777 13.2444 44.284 13.6468 42.8234 13.9762C41.3629 14.3056 41.1803 12.2744 38.2592 13.9214C35.3382 15.5682 35.7397 11.5792 37.7845 10.5545C39.8292 9.52976 40.4499 10.0788 39.3181 9.34687C38.1861 8.61492 40.6325 8.43203 36.5065 6.82172C32.3804 5.21155 35.1555 3.01581 37.6384 3.1622C38.7637 3.30072 39.8155 3.49053 40.8052 3.72144Z" fill="#8FD831"/>
</g>
<defs>
<clipPath id="clip0_2_184">
<rect width="172" height="55" fill="white"/>
</clipPath>
</defs>
</svg>
