<svg width="172" height="55" viewBox="0 0 172 55" fill="none" xmlns="http://www.w3.org/2000/svg">
<g clip-path="url(#clip0_111_71)">
<path d="M93.6252 24.6003H95.9922V3.05176H93.6252V12.0406C93.3795 13.6741 92.4867 14.5689 91.0452 14.5689C89.358 14.5689 88.3997 13.2719 88.3997 11.4577V3.05176H86.0081V11.6383C86.0081 14.5361 87.3922 16.7525 90.2753 16.7525C91.5694 16.7525 92.8553 16.1697 93.6252 15.0615V24.6003Z" fill="white"/>
<path d="M106.46 7.45176V24.6003H108.614V3.05176H105.944L102.807 12.3197L100.595 19.1249V3.05176H98.4739V24.6003H100.964L104.158 14.5935L106.46 7.45176Z" fill="white"/>
<path d="M115.674 2.83789C112.39 2.83789 110.858 4.98864 110.858 8.2558V19.3954C110.858 22.6625 112.39 24.8133 115.674 24.8133C118.991 24.8133 120.531 22.6625 120.531 19.3954V16.7192H118.254V19.5185C118.254 21.464 117.492 22.6297 115.739 22.6297C114.019 22.6297 113.217 21.464 113.217 19.5185V8.13267C113.217 6.19535 114.019 5.02147 115.739 5.02147C117.492 5.02147 118.254 6.19535 118.254 8.13267V10.1931H120.531V8.2558C120.531 4.98864 118.991 2.83789 115.674 2.83789Z" fill="white"/>
<path d="M128.394 24.6003V5.23534H132.35V3.05176H122.03V5.23534H125.994V24.6003H128.394Z" fill="white"/>
<path d="M141.998 20.2577L142.825 24.6003H145.225L141.105 3.05176H137.633L133.521 24.6003H135.732L136.56 20.2577H141.998ZM139.23 5.76071L141.662 18.1973H136.871L139.23 5.76071Z" fill="white"/>
<path d="M154.349 15.398V24.6003H156.741V3.05176H151.95C148.575 3.05176 147.158 4.77564 147.158 7.97713V9.73385C147.158 12.1062 147.985 13.5838 149.804 14.1667C147.863 14.7495 147.125 16.3503 147.125 18.657V22.0144C147.125 22.9667 147.068 23.8615 146.699 24.6003H149.124C149.402 23.9846 149.525 23.4346 149.525 21.9816V18.5995C149.525 16.1697 150.664 15.398 152.654 15.398H154.349ZM154.349 5.23534V13.2144H152.531C150.664 13.2144 149.525 12.5988 149.525 10.2592V8.19056C149.525 6.25325 150.23 5.23534 152.015 5.23534H154.349Z" fill="white"/>
<path d="M93.8381 33.0635V52.4284H96.2379V30.8799H86.1636V52.4284H88.5552V33.0635H93.8381Z" fill="white"/>
<path d="M107.385 33.0635V52.4284H109.777V30.8799H101.021L100.44 47.1993C100.382 49.2597 100.038 50.2776 98.0481 50.2776V52.4612H98.4412C101.734 52.4284 102.651 50.4911 102.774 47.0762L103.265 33.0635H107.385Z" fill="white"/>
<path d="M120.195 48.0859L121.022 52.4284H123.414L119.302 30.8799H115.83L111.718 52.4284H113.929L114.757 48.0859H120.195ZM117.427 33.5888L119.851 46.0254H115.06L117.427 33.5888Z" fill="white"/>
<path d="M132.972 42.7336V52.4284H135.364V30.8799H132.972V40.5747H127.689V30.8799H125.29V52.4284H127.689V42.7336H132.972Z" fill="white"/>
<path d="M140.221 40.4269V33.0635H146.667V30.8799H137.821V52.4284H146.667V50.2448H140.221V42.5776H145.471V40.4269H140.221Z" fill="white"/>
<path d="M154.562 52.4284V33.0635H158.527V30.8799H148.207V33.0635H152.163V52.4284H154.562Z" fill="white"/>
<path d="M168.167 48.0859L168.994 52.4284H171.394L167.274 30.8799H163.81L159.69 52.4284H161.901L162.728 48.0859H168.167ZM165.407 33.5888L167.831 46.0254H163.04L165.407 33.5888Z" fill="white"/>
<path opacity="0.5" d="M70.4504 52.3441V1.68168C70.4504 1.3172 70.3522 1.07422 70.2047 1.07422C70.0573 1.07422 69.959 1.3172 69.959 1.68168V52.2833C69.959 52.6478 70.0573 52.8908 70.2047 52.8908C70.3522 52.8908 70.4504 52.6478 70.4504 52.3441Z" fill="white"/>
<path fill-rule="evenodd" clip-rule="evenodd" d="M27.141 0.015625C42.0964 0.015625 54.2202 12.1668 54.2202 27.1556C54.2202 42.1447 42.0964 54.2959 27.141 54.2959C12.1861 54.2959 0.0621338 42.1447 0.0621338 27.1556C0.0621338 12.1668 12.1861 0.015625 27.141 0.015625Z" fill="#3498DB"/>
<path fill-rule="evenodd" clip-rule="evenodd" d="M3.02991 14.7899C6.79991 7.42066 13.8344 2.00715 22.22 0.463867C23.4943 0.515423 22.5369 0.800473 23.2352 2.13699C24.0385 3.6739 23.3813 5.06456 21.7016 4.03995C20.022 3.01521 19.73 4.40586 18.3425 3.60077C16.9551 2.79569 17.0281 4.91816 16.9551 6.67473C16.882 8.43129 19.8031 5.35734 22.5781 5.94277C25.3531 6.52834 23.6004 10.7734 18.7077 10.3343C13.8151 9.89508 16.225 10.0417 13.8151 13.9939C11.4053 17.9462 11.0402 16.9216 10.0907 15.3113C9.14124 13.7011 8.55726 15.0185 8.70318 17.2143C8.84911 19.41 10.6019 17.5069 10.0176 19.4831C9.43336 21.4593 10.1638 22.9965 12.6467 22.1183C15.1297 21.24 13.5962 25.5583 15.7138 25.6314C17.8315 25.7046 19.365 27.0221 22.1401 28.1931C24.915 29.3642 27.3248 33.0236 25.2073 33.9018C23.0896 34.7802 24.1119 38.7325 20.6066 38.8789C17.1013 39.0253 16.5903 49.6378 15.4218 49.5647C14.2533 49.4915 13.5231 44.8073 12.2087 42.9776C10.8943 41.1479 12.5738 38.0738 11.9897 36.2441C11.4055 34.4144 8.04624 32.4383 8.92248 27.6811C9.79885 22.9237 7.68102 26.7294 7.16987 22.9968C6.65872 19.264 5.12513 21.533 4.68695 18.5322C4.31536 15.986 3.73314 15.1261 3.02991 14.7899Z" fill="#8FD831"/>
<path fill-rule="evenodd" clip-rule="evenodd" d="M27.3066 1.44141C29.4973 1.44141 30.6658 2.24649 30.4833 2.75893C30.3007 3.27123 29.2601 2.50278 28.621 3.98488C27.9821 5.46697 26.339 6.56471 25.4262 5.70481C24.5133 4.84491 26.0834 5.0278 25.4262 3.67378C24.7688 2.31962 25.4992 1.51467 27.3066 1.44141Z" fill="#8FD831"/>
<path fill-rule="evenodd" clip-rule="evenodd" d="M36.6436 52.5762C33.6867 53.6871 30.485 54.2961 27.1412 54.2961C23.281 54.2961 19.6105 53.4848 16.2875 52.0259C16.4593 51.8737 16.7772 51.667 17.3012 51.2851C18.9078 50.114 19.1635 47.772 20.697 49.126C22.2305 50.48 22.1209 49.2358 24.3847 50.2971C26.6486 51.3584 25.8089 49.3823 29.4235 50.0045C33.0382 50.6265 34.0606 50.9193 35.4482 50.3338C36.6941 49.8079 37.3214 51.2881 36.6436 52.5762Z" fill="#8FD831"/>
<path fill-rule="evenodd" clip-rule="evenodd" d="M40.8052 3.72147C48.812 8.42134 54.1957 17.124 54.2194 27.0901C54.019 28.0184 53.7881 28.8331 53.5577 29.4928C51.513 35.3481 50.4908 33.3352 50.3447 34.9089C50.1987 36.4826 50.2352 35.7872 48.1539 41.9351C46.0728 48.0832 44.1741 45.0457 43.6994 42.9232C43.2248 40.8008 44.0645 40.947 43.2977 38.4951C42.531 36.0432 44.4297 35.97 44.0646 34.799C43.6995 33.628 43.2979 32.5666 43.59 31.1027C43.8821 29.6389 43.882 27.004 42.4945 26.3454C41.1069 25.6867 37.6019 28.9437 35.6665 26.565C33.7313 24.1863 36.6161 22.7225 35.8492 20.8561C35.0825 18.9898 36.1779 18.7702 37.2733 17.9284C38.3687 17.0867 39.3365 14.8728 40.9978 14.4336C42.6592 13.9944 43.9554 15.1655 45.1785 15.8609C46.4017 16.5562 46.4017 14.8544 45.6897 14.0495C44.9777 13.2444 44.284 13.6468 42.8234 13.9762C41.3629 14.3056 41.1803 12.2745 38.2592 13.9214C35.3382 15.5682 35.7397 11.5793 37.7845 10.5545C39.8292 9.52979 40.4499 10.0789 39.3181 9.34691C38.1861 8.61495 40.6325 8.43206 36.5065 6.82175C32.3804 5.21158 35.1555 3.01584 37.6384 3.16223C38.7637 3.30075 39.8155 3.49056 40.8052 3.72147Z" fill="#8FD831"/>
</g>
<defs>
<clipPath id="clip0_111_71">
<rect width="172" height="55" fill="white"/>
</clipPath>
</defs>
</svg>
